<svg preserveAspectRatio="none" width="100%" height="100%" overflow="visible" style="display: block;" viewBox="0 0 4.52 7.23888" fill="none" xmlns="http://www.w3.org/2000/svg">
<path id="Vector" d="M4.52 7.23888H3.42V4.07063C3.42 3.66958 3.34001 3.37881 3.18001 3.17828C3.02001 2.98779 2.77 2.88748 2.42 2.88748C1.96 2.88748 1.63 3.02789 1.41 3.29859C1.2 3.5693 1.09 4.03051 1.09 4.68221V7.23888H0V0H1.09V1.83475C1.09 2.12551 1.07 2.44635 1.03 2.77721H1.10001C1.25001 2.52656 1.46 2.33604 1.72 2.19568C1.98 2.05531 2.29001 1.9952 2.65001 1.9952C3.89001 1.9952 4.52 2.62686 4.52 3.88013V7.23888Z" fill="var(--fill-0, #515151)"/>
</svg>
